<?xml version="1.0" encoding="utf-8"?>
<!-- Generator: Adobe Illustrator 25.2.0, SVG Export Plug-In . SVG Version: 6.00 Build 0)  -->
<svg version="1.1" id="Layer_1" xmlns="http://www.w3.org/2000/svg" xmlns:xlink="http://www.w3.org/1999/xlink" x="0px" y="0px"
	 viewBox="0 0 73.8 64.7" style="enable-background:new 0 0 73.8 64.7;" xml:space="preserve">
<style type="text/css">
	.st0{fill:none;}
	.st1{fill:#E2E2E2;}
	.st2{clip-path:url(#SVGID_2_);}
</style>
<g id="user_settings" transform="translate(-104 -597)">
	<g id="settings" transform="translate(192 603)">
		<path id="Path_3" class="st0" d="M-51.6,12.6h35.4V48h-35.4V12.6z"/>
		<path id="Path_4" class="st1" d="M-27.5,40.7c0.2-0.2,0.3-0.6,0.6-0.9c0.1-0.3,0.3-0.6,0.3-0.9l2.7-0.6c0.2,0,0.4-0.2,0.4-0.6
			l-0.2-4c0-0.2-0.2-0.4-0.4-0.4l-2.7-0.2c-0.3-0.6-0.7-1.1-1.1-1.7l0.9-2.6c0.1-0.2,0-0.6-0.2-0.7l-3.7-1.9c-0.2-0.1-0.4,0-0.7,0.1
			l-1.6,2.2c-0.7,0-1.3,0-2,0.1l-1.8-2c-0.2-0.2-0.4-0.2-0.7-0.1l-3.5,2.2c-0.2,0.1-0.3,0.4-0.2,0.7l1.1,2.5
			c-0.4,0.6-0.7,1.1-0.9,1.8l-2.7,0.6c-0.2,0-0.4,0.2-0.4,0.6l0.2,4c0,0.2,0.2,0.4,0.4,0.4l2.7,0.2c0.3,0.6,0.7,1.1,1.1,1.7
			l-0.9,2.6c-0.1,0.2,0,0.6,0.2,0.7l3.7,1.9c0.2,0.1,0.4,0,0.7-0.1l1.6-2.2c0.7,0,1.3,0,2-0.1l1.9,2c0.2,0.2,0.4,0.2,0.7,0.1
			l3.5-2.2c0.2-0.1,0.3-0.4,0.2-0.7L-27.5,40.7z M-35.6,39.8c-1.9-1-2.7-3.2-1.7-5.1c1-1.9,3.2-2.7,5.1-1.7c1.9,1,2.7,3.2,1.7,5.1
			C-31.4,40-33.7,40.8-35.6,39.8z"/>
	</g>
	<g>
		<g>
			<defs>
				<rect id="SVGID_1_" x="74.4" y="611.1" width="124.7" height="43.5"/>
			</defs>
			<clipPath id="SVGID_2_">
				<use xlink:href="#SVGID_1_"  style="overflow:visible;"/>
			</clipPath>
			<g id="Mask_Group_2" class="st2">
				<g id="person_outline-24px" transform="translate(154.25 588.5)">
					<path id="Path_5" class="st0" d="M-42.1,16.3H7.8v49.9h-49.9V16.3z"/>
					<path id="Path_6" class="st1" d="M-17.1,28.5c2.5,0,4.4,1.9,4.4,4.4s-1.9,4.4-4.4,4.4s-4.4-1.9-4.4-4.4l0,0
						C-21.5,30.5-19.6,28.5-17.1,28.5L-17.1,28.5 M-17.1,47.3c6.2,0,12.6,3,12.6,4.4v2.2h-25.4v-2.2C-29.9,50.3-23.4,47.3-17.1,47.3
						 M-17.1,24.6c-4.6,0-8.3,3.7-8.3,8.3s3.7,8.3,8.3,8.3s8.3-3.7,8.3-8.3S-12.5,24.6-17.1,24.6L-17.1,24.6L-17.1,24.6z
						 M-17.1,43.2c-5.6,0-16.7,2.8-16.7,8.3v6.3h33.4v-6.3C-0.4,46-11.6,43.2-17.1,43.2L-17.1,43.2z"/>
				</g>
			</g>
		</g>
	</g>
</g>
</svg>
