<svg xmlns="http://www.w3.org/2000/svg" xmlns:xlink="http://www.w3.org/1999/xlink" width="166" height="58" viewBox="0 0 166 58">
  <defs>
    <clipPath id="clip-path">
      <rect id="user_setting" width="166" height="58" transform="translate(104 597)" fill="#fff" stroke="#707070" stroke-width="1"/>
    </clipPath>
  </defs>
  <g id="user_settings" transform="translate(-104 -597)">
    <g id="settings" transform="translate(192 603)">
      <path id="Path_3" data-name="Path 3" d="M0,0H47V47H0Z" fill="none"/>
      <path id="Path_4" data-name="Path 4" d="M26.054,17.362a10.042,10.042,0,0,0,.085-1.334,8.2,8.2,0,0,0-.1-1.334l2.882-2.243a.7.7,0,0,0,.17-.866L26.366,6.872a.693.693,0,0,0-.838-.312L22.136,7.922a10.028,10.028,0,0,0-2.3-1.334l-.511-3.606a.687.687,0,0,0-.681-.582H13.192a.672.672,0,0,0-.667.582l-.511,3.606a10.249,10.249,0,0,0-2.3,1.334L6.322,6.559a.678.678,0,0,0-.838.312L2.773,11.585a.646.646,0,0,0,.17.866l2.882,2.243A7.9,7.9,0,0,0,5.8,17.362L2.915,19.605a.7.7,0,0,0-.17.866L5.47,25.184a.693.693,0,0,0,.838.312L9.7,24.133A10.028,10.028,0,0,0,12,25.468l.511,3.606a.7.7,0,0,0,.681.582h5.451a.662.662,0,0,0,.667-.582l.511-3.606a9.737,9.737,0,0,0,2.3-1.334L25.514,25.5a.678.678,0,0,0,.838-.312l2.726-4.713a.657.657,0,0,0-.17-.866ZM15.918,21.138a5.11,5.11,0,1,1,5.11-5.11A5.125,5.125,0,0,1,15.918,21.138Z" transform="matrix(0.891, 0.454, -0.454, 0.891, 16.625, 10.165)" fill="#e2e2e2"/>
    </g>
    <g id="Mask_Group_2" data-name="Mask Group 2" clip-path="url(#clip-path)">
      <g id="person_outline-24px" transform="translate(154.25 588.5)">
        <path id="Path_5" data-name="Path 5" d="M0,0H66.5V66.5H0Z" fill="none"/>
        <path id="Path_6" data-name="Path 6" d="M26.167,9.265a5.819,5.819,0,1,1-5.819,5.819,5.818,5.818,0,0,1,5.819-5.819m0,24.938c8.229,0,16.9,4.045,16.9,5.819v3.048H9.265V40.021c0-1.773,8.673-5.819,16.9-5.819m0-30.2A11.083,11.083,0,1,0,37.25,15.083,11.08,11.08,0,0,0,26.167,4Zm0,24.937C18.769,28.937,4,32.65,4,40.021v8.313H48.333V40.021C48.333,32.65,33.565,28.937,26.167,28.937Z" transform="translate(7.083 7.083)" fill="#e2e2e2"/>
      </g>
    </g>
  </g>
</svg>
