<?xml version="1.0" encoding="utf-8"?>
<!-- Generator: Adobe Illustrator 25.2.0, SVG Export Plug-In . SVG Version: 6.00 Build 0)  -->
<svg version="1.1" id="user_x5F_setting" xmlns="http://www.w3.org/2000/svg" xmlns:xlink="http://www.w3.org/1999/xlink" x="0px"
	 y="0px" viewBox="0 0 113.8 72.8" style="enable-background:new 0 0 113.8 72.8;" xml:space="preserve">
<style type="text/css">
	.st0{fill:#E2E2E2;}
</style>
<path id="wheel1" class="st0" d="M97.3,60.7c0.4-0.4,0.6-1.1,1.1-1.7c0.2-0.6,0.6-1.1,0.6-1.7l5.1-1.1c0.4,0,0.9-0.4,0.9-1.1
	l-0.4-7.7c0-0.4-0.4-0.9-0.9-0.9l-5.1-0.4c-0.6-1.1-1.3-2.1-2.1-3.2l1.7-4.9c0.2-0.4,0-1.1-0.4-1.3l-7-3.6c-0.4-0.2-0.9,0-1.3,0.2
	l-3,4.3c-1.3,0-2.6,0-3.8,0.2L79.2,34c-0.4-0.4-0.9-0.4-1.3-0.2l-6.6,4.3c-0.4,0.2-0.6,0.9-0.4,1.3l2.1,4.7
	c-0.9,1.1-1.3,2.1-1.7,3.4l-5.1,1.1c-0.4,0-0.9,0.4-0.9,1.1l0.4,7.7c0,0.4,0.4,0.9,0.9,0.9l5.1,0.4c0.6,1.1,1.3,2.1,2.1,3.2
	l-1.7,4.9c-0.2,0.4,0,1.1,0.4,1.3l7,3.6c0.4,0.2,0.9,0,1.3-0.2l3-4.3c1.3,0,2.6,0,3.8-0.2l3.6,3.8c0.4,0.4,0.9,0.4,1.3,0.2l6.6-4.3
	c0.4-0.2,0.6-0.9,0.4-1.3L97.3,60.7z M81.9,59c-3.6-1.9-5.1-6.2-3.2-9.8s6.2-5.1,9.8-3.2c3.6,1.9,5.1,6.2,3.2,9.8
	C89.8,59.4,85.6,60.9,81.9,59z"/>
<path id="settingperson" class="st0" d="M45.1,9.7c4.7,0,8.3,3.6,8.3,8.3s-3.6,8.3-8.3,8.3s-8.3-3.6-8.3-8.3l0,0
	C36.8,13.5,40.4,9.7,45.1,9.7L45.1,9.7 M45.1,45.6c11.7,0,24.1,5.8,24.1,8.3v4.3H20.7v-4.3C20.7,51.3,33.1,45.6,45.1,45.6 M45.1,2.2
	c-8.8,0-15.8,7-15.8,15.8s7,15.8,15.8,15.8s15.8-7,15.8-15.8S53.9,2.2,45.1,2.2L45.1,2.2L45.1,2.2z M45.1,37.9
	c-10.7,0-31.8,5.3-31.8,15.8v12h63.7v-12C76.9,43.2,55.6,37.9,45.1,37.9L45.1,37.9z"/>
</svg>
