<svg xmlns="http://www.w3.org/2000/svg" width="41.314" height="41.314" viewBox="0 0 41.314 41.314">
  <g id="youtube" transform="translate(-58)">
    <g id="Group_14" data-name="Group 14" transform="translate(58 0)">
      <path id="Path_22" data-name="Path 22" d="M1615,631.571a20.657,20.657,0,1,1-20.657-20.657A20.658,20.658,0,0,1,1615,631.571Z" transform="translate(-1573.69 -610.914)" fill="#e14e42"/>
      <g id="Group_7" data-name="Group 7" transform="translate(7.746 7.746)">
        <path id="Path_23" data-name="Path 23" d="M1605.619,640.1a.516.516,0,0,0-.446.184,1,1,0,0,0-.136.6v.676h1.155v-.676a1.009,1.009,0,0,0-.138-.6A.5.5,0,0,0,1605.619,640.1Z" transform="translate(-1585.803 -622.726)" fill="#fff"/>
        <g id="Group_6" data-name="Group 6">
          <path id="Path_24" data-name="Path 24" d="M1600.392,640.078a.638.638,0,0,0-.278.065.95.95,0,0,0-.269.2v4.163a1.176,1.176,0,0,0,.309.238.759.759,0,0,0,.316.071.423.423,0,0,0,.354-.143.749.749,0,0,0,.112-.46v-3.45a.817.817,0,0,0-.136-.514A.5.5,0,0,0,1600.392,640.078Z" transform="translate(-1585.08 -622.723)" fill="#fff"/>
          <g id="Group_5" data-name="Group 5">
            <path id="Path_25" data-name="Path 25" d="M1603.793,633.914h-16.387a4.994,4.994,0,0,0-4.717,5.073v3.876a4.77,4.77,0,0,0,4.717,4.823h16.387a4.771,4.771,0,0,0,4.718-4.823v-3.876A5,5,0,0,0,1603.793,633.914Zm-12.944,3.267h-1.523v7.739h-1.472v-7.739h-1.522v-1.317h4.517Zm4.3,7.739h-1.307v-.732a2.759,2.759,0,0,1-.753.616,1.542,1.542,0,0,1-.759.214.8.8,0,0,1-.681-.3,1.463,1.463,0,0,1-.231-.9v-5.585h1.306v5.125a.581.581,0,0,0,.08.342.319.319,0,0,0,.269.107.741.741,0,0,0,.365-.14,1.746,1.746,0,0,0,.4-.359v-5.075h1.307Zm4.741-1.379a1.688,1.688,0,0,1-.308,1.088,1.074,1.074,0,0,1-.887.377,1.531,1.531,0,0,1-.684-.146,1.681,1.681,0,0,1-.558-.452v.511h-1.319v-9.055h1.319v2.917a2.058,2.058,0,0,1,.559-.464,1.26,1.26,0,0,1,.6-.159,1.116,1.116,0,0,1,.947.426,2.023,2.023,0,0,1,.328,1.249Zm4.529-1.8h-2.5V643a1.474,1.474,0,0,0,.128.732.479.479,0,0,0,.443.2.535.535,0,0,0,.454-.173,1.48,1.48,0,0,0,.129-.762v-.3h1.343v.343a2.167,2.167,0,0,1-.493,1.548,1.921,1.921,0,0,1-1.464.516,1.777,1.777,0,0,1-1.383-.551,2.155,2.155,0,0,1-.5-1.514v-3a1.9,1.9,0,0,1,.556-1.417,1.943,1.943,0,0,1,1.429-.547,1.812,1.812,0,0,1,1.379.507,2.033,2.033,0,0,1,.481,1.456Z" transform="translate(-1582.69 -621.864)" fill="#fff"/>
            <path id="Path_26" data-name="Path 26" d="M1588.373,619.914l1.97,6.026v3.952H1592v-4.139l1.928-5.838h-1.685l-1.024,3.989h-.1l-1.076-3.989Z" transform="translate(-1583.481 -619.914)" fill="#fff"/>
            <path id="Path_27" data-name="Path 27" d="M1595.556,623.246a1.7,1.7,0,0,0-.591,1.362v3.815a1.981,1.981,0,0,0,.577,1.493,2.147,2.147,0,0,0,1.547.556,2.216,2.216,0,0,0,1.575-.538,1.946,1.946,0,0,0,.57-1.481v-3.8a1.791,1.791,0,0,0-.582-1.377,2.134,2.134,0,0,0-1.5-.534A2.386,2.386,0,0,0,1595.556,623.246Zm2.179,1.306v4.011a.627.627,0,0,1-.176.466.662.662,0,0,1-.476.169.577.577,0,0,1-.449-.167.654.654,0,0,1-.156-.467v-4.011a.508.508,0,0,1,.166-.39.643.643,0,0,1,.439-.147.713.713,0,0,1,.471.147A.485.485,0,0,1,1597.735,624.552Z" transform="translate(-1584.4 -620.308)" fill="#fff"/>
            <path id="Path_28" data-name="Path 28" d="M1605.507,630.316v-7.36h-1.471v5.587a2,2,0,0,1-.453.4.848.848,0,0,1-.412.155.353.353,0,0,1-.3-.119.615.615,0,0,1-.094-.376v-5.643h-1.469v6.151a1.567,1.567,0,0,0,.259.984.915.915,0,0,0,.768.331,1.806,1.806,0,0,0,.852-.235,3.122,3.122,0,0,0,.848-.687v.815Z" transform="translate(-1585.283 -620.338)" fill="#fff"/>
          </g>
        </g>
      </g>
      <path id="Path_29" data-name="Path 29" d="M1615,631.571a20.657,20.657,0,1,1-20.657-20.657A20.658,20.658,0,0,1,1615,631.571Z" transform="translate(-1573.69 -610.914)" fill="#e14e42"/>
      <g id="Group_10" data-name="Group 10" transform="translate(7.746 7.746)">
        <path id="Path_30" data-name="Path 30" d="M1605.619,640.1a.516.516,0,0,0-.446.184,1,1,0,0,0-.136.6v.676h1.155v-.676a1.009,1.009,0,0,0-.138-.6A.5.5,0,0,0,1605.619,640.1Z" transform="translate(-1585.803 -622.726)" fill="#fff"/>
        <g id="Group_9" data-name="Group 9">
          <path id="Path_31" data-name="Path 31" d="M1600.392,640.078a.638.638,0,0,0-.278.065.95.95,0,0,0-.269.2v4.163a1.176,1.176,0,0,0,.309.238.759.759,0,0,0,.316.071.423.423,0,0,0,.354-.143.749.749,0,0,0,.112-.46v-3.45a.817.817,0,0,0-.136-.514A.5.5,0,0,0,1600.392,640.078Z" transform="translate(-1585.08 -622.723)" fill="#fff"/>
          <g id="Group_8" data-name="Group 8">
            <path id="Path_32" data-name="Path 32" d="M1603.793,633.914h-16.387a4.994,4.994,0,0,0-4.717,5.073v3.876a4.77,4.77,0,0,0,4.717,4.823h16.387a4.771,4.771,0,0,0,4.718-4.823v-3.876A5,5,0,0,0,1603.793,633.914Zm-12.944,3.267h-1.523v7.739h-1.472v-7.739h-1.522v-1.317h4.517Zm4.3,7.739h-1.307v-.732a2.759,2.759,0,0,1-.753.616,1.542,1.542,0,0,1-.759.214.8.8,0,0,1-.681-.3,1.463,1.463,0,0,1-.231-.9v-5.585h1.306v5.125a.581.581,0,0,0,.08.342.319.319,0,0,0,.269.107.741.741,0,0,0,.365-.14,1.746,1.746,0,0,0,.4-.359v-5.075h1.307Zm4.741-1.379a1.688,1.688,0,0,1-.308,1.088,1.074,1.074,0,0,1-.887.377,1.531,1.531,0,0,1-.684-.146,1.681,1.681,0,0,1-.558-.452v.511h-1.319v-9.055h1.319v2.917a2.058,2.058,0,0,1,.559-.464,1.26,1.26,0,0,1,.6-.159,1.116,1.116,0,0,1,.947.426,2.023,2.023,0,0,1,.328,1.249Zm4.529-1.8h-2.5V643a1.474,1.474,0,0,0,.128.732.479.479,0,0,0,.443.2.535.535,0,0,0,.454-.173,1.48,1.48,0,0,0,.129-.762v-.3h1.343v.343a2.167,2.167,0,0,1-.493,1.548,1.921,1.921,0,0,1-1.464.516,1.777,1.777,0,0,1-1.383-.551,2.155,2.155,0,0,1-.5-1.514v-3a1.9,1.9,0,0,1,.556-1.417,1.943,1.943,0,0,1,1.429-.547,1.812,1.812,0,0,1,1.379.507,2.033,2.033,0,0,1,.481,1.456Z" transform="translate(-1582.69 -621.864)" fill="#fff"/>
            <path id="Path_33" data-name="Path 33" d="M1588.373,619.914l1.97,6.026v3.952H1592v-4.139l1.928-5.838h-1.685l-1.024,3.989h-.1l-1.076-3.989Z" transform="translate(-1583.481 -619.914)" fill="#fff"/>
            <path id="Path_34" data-name="Path 34" d="M1595.556,623.246a1.7,1.7,0,0,0-.591,1.362v3.815a1.981,1.981,0,0,0,.577,1.493,2.147,2.147,0,0,0,1.547.556,2.216,2.216,0,0,0,1.575-.538,1.946,1.946,0,0,0,.57-1.481v-3.8a1.791,1.791,0,0,0-.582-1.377,2.134,2.134,0,0,0-1.5-.534A2.386,2.386,0,0,0,1595.556,623.246Zm2.179,1.306v4.011a.627.627,0,0,1-.176.466.662.662,0,0,1-.476.169.577.577,0,0,1-.449-.167.654.654,0,0,1-.156-.467v-4.011a.508.508,0,0,1,.166-.39.643.643,0,0,1,.439-.147.713.713,0,0,1,.471.147A.485.485,0,0,1,1597.735,624.552Z" transform="translate(-1584.4 -620.308)" fill="#fff"/>
            <path id="Path_35" data-name="Path 35" d="M1605.507,630.316v-7.36h-1.471v5.587a2,2,0,0,1-.453.4.848.848,0,0,1-.412.155.353.353,0,0,1-.3-.119.615.615,0,0,1-.094-.376v-5.643h-1.469v6.151a1.567,1.567,0,0,0,.259.984.915.915,0,0,0,.768.331,1.806,1.806,0,0,0,.852-.235,3.122,3.122,0,0,0,.848-.687v.815Z" transform="translate(-1585.283 -620.338)" fill="#fff"/>
          </g>
        </g>
      </g>
      <path id="Path_36" data-name="Path 36" d="M1615,631.571a20.657,20.657,0,1,1-20.657-20.657A20.658,20.658,0,0,1,1615,631.571Z" transform="translate(-1573.69 -610.914)" fill="#6c3c97"/>
      <g id="Group_13" data-name="Group 13" transform="translate(7.746 7.746)">
        <path id="Path_37" data-name="Path 37" d="M1605.619,640.1a.516.516,0,0,0-.446.184,1,1,0,0,0-.136.6v.676h1.155v-.676a1.009,1.009,0,0,0-.138-.6A.5.5,0,0,0,1605.619,640.1Z" transform="translate(-1585.803 -622.726)" fill="#fff"/>
        <g id="Group_12" data-name="Group 12">
          <path id="Path_38" data-name="Path 38" d="M1600.392,640.078a.638.638,0,0,0-.278.065.95.95,0,0,0-.269.2v4.163a1.176,1.176,0,0,0,.309.238.759.759,0,0,0,.316.071.423.423,0,0,0,.354-.143.749.749,0,0,0,.112-.46v-3.45a.817.817,0,0,0-.136-.514A.5.5,0,0,0,1600.392,640.078Z" transform="translate(-1585.08 -622.723)" fill="#fff"/>
          <g id="Group_11" data-name="Group 11">
            <path id="Path_39" data-name="Path 39" d="M1603.793,633.914h-16.387a4.994,4.994,0,0,0-4.717,5.073v3.876a4.77,4.77,0,0,0,4.717,4.823h16.387a4.771,4.771,0,0,0,4.718-4.823v-3.876A5,5,0,0,0,1603.793,633.914Zm-12.944,3.267h-1.523v7.739h-1.472v-7.739h-1.522v-1.317h4.517Zm4.3,7.739h-1.307v-.732a2.759,2.759,0,0,1-.753.616,1.542,1.542,0,0,1-.759.214.8.8,0,0,1-.681-.3,1.463,1.463,0,0,1-.231-.9v-5.585h1.306v5.125a.581.581,0,0,0,.08.342.319.319,0,0,0,.269.107.741.741,0,0,0,.365-.14,1.746,1.746,0,0,0,.4-.359v-5.075h1.307Zm4.741-1.379a1.688,1.688,0,0,1-.308,1.088,1.074,1.074,0,0,1-.887.377,1.531,1.531,0,0,1-.684-.146,1.681,1.681,0,0,1-.558-.452v.511h-1.319v-9.055h1.319v2.917a2.058,2.058,0,0,1,.559-.464,1.26,1.26,0,0,1,.6-.159,1.116,1.116,0,0,1,.947.426,2.023,2.023,0,0,1,.328,1.249Zm4.529-1.8h-2.5V643a1.474,1.474,0,0,0,.128.732.479.479,0,0,0,.443.2.535.535,0,0,0,.454-.173,1.48,1.48,0,0,0,.129-.762v-.3h1.343v.343a2.167,2.167,0,0,1-.493,1.548,1.921,1.921,0,0,1-1.464.516,1.777,1.777,0,0,1-1.383-.551,2.155,2.155,0,0,1-.5-1.514v-3a1.9,1.9,0,0,1,.556-1.417,1.943,1.943,0,0,1,1.429-.547,1.812,1.812,0,0,1,1.379.507,2.033,2.033,0,0,1,.481,1.456Z" transform="translate(-1582.69 -621.864)" fill="#fff"/>
            <path id="Path_40" data-name="Path 40" d="M1588.373,619.914l1.97,6.026v3.952H1592v-4.139l1.928-5.838h-1.685l-1.024,3.989h-.1l-1.076-3.989Z" transform="translate(-1583.481 -619.914)" fill="#fff"/>
            <path id="Path_41" data-name="Path 41" d="M1595.556,623.246a1.7,1.7,0,0,0-.591,1.362v3.815a1.981,1.981,0,0,0,.577,1.493,2.147,2.147,0,0,0,1.547.556,2.216,2.216,0,0,0,1.575-.538,1.946,1.946,0,0,0,.57-1.481v-3.8a1.791,1.791,0,0,0-.582-1.377,2.134,2.134,0,0,0-1.5-.534A2.386,2.386,0,0,0,1595.556,623.246Zm2.179,1.306v4.011a.627.627,0,0,1-.176.466.662.662,0,0,1-.476.169.577.577,0,0,1-.449-.167.654.654,0,0,1-.156-.467v-4.011a.508.508,0,0,1,.166-.39.643.643,0,0,1,.439-.147.713.713,0,0,1,.471.147A.485.485,0,0,1,1597.735,624.552Z" transform="translate(-1584.4 -620.308)" fill="#fff"/>
            <path id="Path_42" data-name="Path 42" d="M1605.507,630.316v-7.36h-1.471v5.587a2,2,0,0,1-.453.4.848.848,0,0,1-.412.155.353.353,0,0,1-.3-.119.615.615,0,0,1-.094-.376v-5.643h-1.469v6.151a1.567,1.567,0,0,0,.259.984.915.915,0,0,0,.768.331,1.806,1.806,0,0,0,.852-.235,3.122,3.122,0,0,0,.848-.687v.815Z" transform="translate(-1585.283 -620.338)" fill="#fff"/>
          </g>
        </g>
      </g>
    </g>
  </g>
</svg>
