<?xml version="1.0" encoding="utf-8"?>
<!-- Generator: Adobe Illustrator 25.2.0, SVG Export Plug-In . SVG Version: 6.00 Build 0)  -->
<svg version="1.1" id="Layer_1" xmlns="http://www.w3.org/2000/svg" xmlns:xlink="http://www.w3.org/1999/xlink" x="0px" y="0px"
	 viewBox="0 0 178.2 38.2" style="enable-background:new 0 0 178.2 38.2;" xml:space="preserve">
<style type="text/css">
	.st0{clip-path:url(#SVGID_2_);}
	.st1{fill:#6C3C97;}
	.st2{enable-background:new    ;}
	.st3{fill:#FFFFFF;}
</style>
<g id="logo" transform="translate(7.161 -39.5)">
	<g id="g2993" transform="translate(-432.016 1369.387)">
		<g id="g3013" transform="translate(424.854 -1329.887)">
			<g>
				<defs>
					<rect id="SVGID_1_" x="0" y="0" width="81.2" height="38.2"/>
				</defs>
				<clipPath id="SVGID_2_">
					<use xlink:href="#SVGID_1_"  style="overflow:visible;"/>
				</clipPath>
				<g id="g3015" class="st0">
					<g id="g3021" transform="translate(7.811 8.248)">
						<path id="path3023" class="st1" d="M10.3,6.7c0-1.8-1.5-3.4-3.3-3.4H5.3V10H7C8.8,10,10.3,8.5,10.3,6.7 M17.8,20h-6.1L7,13.4
							H5.3V20H0V0h7.7c4.4,0,8,3,8,6.7c-0.1,2.3-1.4,4.4-3.5,5.5L17.8,20"/>
					</g>
					<g id="g3025" transform="translate(23.475 12.267)">
						<path id="path3027" class="st1" d="M8.2,3.9c-1.4,0-2.6,1.9-2.6,4.3s1.2,4.3,2.6,4.3c1.4,0,2.6-1.9,2.6-4.3S9.6,3.9,8.2,3.9
							 M16.4,8.2c0,4.5-3.7,8.2-8.2,8.2c0,0,0,0,0,0C3.7,16.3,0,12.7,0,8.2c0,0,0,0,0,0C0,3.7,3.6,0,8.2,0c0,0,0,0,0,0
							C12.7,0,16.4,3.6,16.4,8.2C16.4,8.2,16.4,8.2,16.4,8.2"/>
					</g>
					<g id="g3029" transform="translate(40.931 12.578)">
						<path id="path3031" class="st1" d="M11.5,0L5.3,6.2V0H0v15.7h5.3V9.3l6.4,6.4h6.7l-8.2-8.2l6.8-6.8v9.3c0,3.1,1.9,5.9,6.5,5.9
							c2-0.1,3.9-0.9,5.3-2.4l2.4,2.1h1.1V0h-5.3v10.1c-0.5,1.1-1.6,1.7-2.7,1.7c-1.3,0-1.9-0.8-1.9-3.3V0H11.5z"/>
					</g>
				</g>
			</g>
		</g>
	</g>
	<g id="flash" class="st2">
		<path class="st3" d="M85.8,53.2h-6v5.3h5.6v1.6h-5.6V67H78V51.6h7.8V53.2z"/>
		<path class="st3" d="M90.3,67h-1.8V50.7h1.8V67z"/>
		<path class="st3" d="M101.7,67H100v-1.7h0c-0.8,1.3-1.9,2-3.4,2c-1.1,0-2-0.3-2.6-0.9S93,65,93,64.1c0-2.1,1.2-3.3,3.6-3.6L100,60
			c0-1.9-0.8-2.8-2.3-2.8c-1.3,0-2.5,0.5-3.6,1.4v-1.8c1.1-0.7,2.3-1,3.7-1c2.6,0,3.9,1.4,3.9,4.1V67z M100,61.4l-2.7,0.4
			c-0.8,0.1-1.4,0.3-1.8,0.6c-0.4,0.3-0.6,0.8-0.6,1.5c0,0.5,0.2,1,0.6,1.3c0.4,0.3,0.9,0.5,1.5,0.5c0.9,0,1.6-0.3,2.2-0.9
			c0.6-0.6,0.9-1.4,0.9-2.3V61.4z"/>
		<path class="st3" d="M104.4,66.6v-1.9c1,0.7,2,1.1,3.2,1.1c1.5,0,2.3-0.5,2.3-1.5c0-0.3-0.1-0.5-0.2-0.7c-0.1-0.2-0.3-0.4-0.5-0.5
			s-0.5-0.3-0.8-0.4c-0.3-0.1-0.6-0.3-1-0.4c-0.5-0.2-0.9-0.4-1.3-0.6c-0.4-0.2-0.7-0.4-0.9-0.7c-0.2-0.2-0.4-0.5-0.6-0.8
			s-0.2-0.7-0.2-1.1c0-0.5,0.1-1,0.4-1.4c0.2-0.4,0.6-0.7,0.9-1c0.4-0.3,0.8-0.5,1.3-0.6s1-0.2,1.6-0.2c1,0,1.8,0.2,2.6,0.5V58
			c-0.8-0.5-1.7-0.8-2.8-0.8c-0.3,0-0.6,0-0.9,0.1c-0.3,0.1-0.5,0.2-0.7,0.3s-0.3,0.3-0.4,0.5c-0.1,0.2-0.2,0.4-0.2,0.6
			c0,0.3,0.1,0.5,0.2,0.7s0.3,0.4,0.5,0.5c0.2,0.2,0.4,0.3,0.7,0.4c0.3,0.1,0.6,0.3,1,0.4c0.5,0.2,0.9,0.4,1.3,0.6
			c0.4,0.2,0.7,0.4,1,0.7c0.3,0.2,0.5,0.5,0.6,0.9s0.2,0.7,0.2,1.1c0,0.5-0.1,1-0.4,1.4s-0.6,0.7-1,1c-0.4,0.3-0.9,0.5-1.4,0.6
			c-0.5,0.1-1.1,0.2-1.6,0.2C106.2,67.3,105.2,67,104.4,66.6z"/>
		<path class="st3" d="M123.5,67h-1.8v-6.3c0-2.3-0.9-3.4-2.6-3.4c-0.9,0-1.6,0.3-2.2,1c-0.6,0.7-0.9,1.5-0.9,2.6V67h-1.8V50.7h1.8
			v7.1h0c0.8-1.4,2-2.1,3.6-2.1c2.5,0,3.7,1.5,3.7,4.5V67z"/>
	</g>
	<g id="back" class="st2">
		<path class="st1" d="M128.6,65.4L128.6,65.4l0,1.6h-1.8V50.7h1.8v7.2h0c0.9-1.5,2.1-2.2,3.8-2.2c1.4,0,2.5,0.5,3.3,1.5
			c0.8,1,1.2,2.3,1.2,4c0,1.8-0.4,3.3-1.3,4.4c-0.9,1.1-2.1,1.7-3.7,1.7C130.5,67.3,129.4,66.6,128.6,65.4z M128.6,61v1.5
			c0,0.9,0.3,1.7,0.9,2.3c0.6,0.6,1.3,1,2.3,1c1.1,0,1.9-0.4,2.5-1.2s0.9-2,0.9-3.4c0-1.2-0.3-2.2-0.8-2.9c-0.6-0.7-1.3-1-2.3-1
			c-1,0-1.8,0.4-2.5,1.1C128.9,59,128.6,59.9,128.6,61z"/>
		<path class="st1" d="M147.6,67h-1.8v-1.7h0c-0.8,1.3-1.9,2-3.4,2c-1.1,0-2-0.3-2.6-0.9s-0.9-1.3-0.9-2.3c0-2.1,1.2-3.3,3.6-3.6
			l3.3-0.5c0-1.9-0.8-2.8-2.3-2.8c-1.3,0-2.5,0.5-3.6,1.4v-1.8c1.1-0.7,2.3-1,3.7-1c2.6,0,3.9,1.4,3.9,4.1V67z M145.9,61.4l-2.7,0.4
			c-0.8,0.1-1.4,0.3-1.8,0.6c-0.4,0.3-0.6,0.8-0.6,1.5c0,0.5,0.2,1,0.6,1.3c0.4,0.3,0.9,0.5,1.5,0.5c0.9,0,1.6-0.3,2.2-0.9
			c0.6-0.6,0.9-1.4,0.9-2.3V61.4z"/>
		<path class="st1" d="M158.5,66.5c-0.8,0.5-1.8,0.8-3,0.8c-1.6,0-2.8-0.5-3.8-1.5c-1-1-1.4-2.3-1.4-4c0-1.8,0.5-3.3,1.6-4.4
			c1-1.1,2.4-1.6,4.2-1.6c1,0,1.8,0.2,2.6,0.5v1.8c-0.8-0.6-1.7-0.9-2.6-0.9c-1.1,0-2,0.4-2.8,1.2c-0.7,0.8-1.1,1.9-1.1,3.2
			c0,1.3,0.3,2.3,1,3.1s1.6,1.1,2.7,1.1c1,0,1.9-0.3,2.7-1V66.5z"/>
		<path class="st1" d="M170.3,67h-2.5l-4.9-5.3h0V67h-1.8V50.7h1.8V61h0l4.6-5h2.3l-5.1,5.3L170.3,67z"/>
	</g>
</g>
</svg>
